# xmcd
#
# Track frame offsets: 
#        150
#        12049
#        19196
#        28063
#        40113
#        53471
#        65758
#        78018
#        88002
#        98212
#        110378
#        120311
#        133622
#        143745
#        153839
#        165158
#        177975
#        190451
#        204201
#        214247
#        226275
#        239812
#        250720
#        262120
#        275371
#
# Disc length: 3846 seconds
#
# Revision: 1
# Processed by: cddbd v1.5.2PL0 Copyright (c) Steve Scherf et al.
# Submitted via: ExactAudioCopyFreeDBPlugin 1.0
#
DISCID=490f0419
DTITLE=Various Artist - Mod:  The Early Years [Real Gone Music]
DYEAR=2017
DGENRE=Rhythm and Blues
TTITLE0=Barbara Lynn - You'll Lose a Good Thing
TTITLE1=Maurice Williams and The Zodiacs - Stay
TTITLE2=The Coasters - I'm a Hog for You Baby
TTITLE3=Eddie Burns - Mean and Evil (Baby)
TTITLE4=Bobby Marchan - Booty Green
TTITLE5=Marvin Gaye - Stubborn Kind of Fellow
TTITLE6=Marv Johnson - You Got What it Takes
TTITLE7=The Orlons - Big Girls Don't Cry
TTITLE8=The Mar-Keys - Foxy
TTITLE9=The Impressions - Say That You Love Me
TTITLE10=John Lee Hooker - Dimples
TTITLE11=Buster Brown - Fanny Mae
TTITLE12=Mel Tormé - Right Now
TTITLE13=Richard Berry and The Pharaohs - Louie Louie
TTITLE14=Rudy and The Romantics - Our Day Will Come
TTITLE15=Betty James - I'm a Little Mixed Up
TTITLE16=Aretha Franklin - Rough Lover
TTITLE17=Etta James - Seven Day Fool
TTITLE18=Paul Anka - Uh-Huh
TTITLE19=Brook Benton - Kiddio
TTITLE20=Little Joe Hinton - Tired of Walkin'
TTITLE21=Jerry McVain - She's Tough
TTITLE22=Joe Jones - You Talk Too Much
TTITLE23=Joe Henderson - Snap Your Fingers
TTITLE24=Stevie Wonder - Fingertips
EXTD=
EXTT0=
EXTT1=
EXTT2=
EXTT3=
EXTT4=
EXTT5=
EXTT6=
EXTT7=
EXTT8=
EXTT9=
EXTT10=
EXTT11=
EXTT12=
EXTT13=
EXTT14=
EXTT15=
EXTT16=
EXTT17=
EXTT18=
EXTT19=
EXTT20=
EXTT21=
EXTT22=
EXTT23=
EXTT24=
PLAYORDER=
